<svg width="30" height="31" viewBox="0 0 30 31" fill="none" xmlns="http://www.w3.org/2000/svg">
<path d="M5.9375 2.42859C5.23302 2.42859 4.55739 2.70844 4.05925 3.20659C3.5611 3.70473 3.28125 4.38036 3.28125 5.08484C3.28125 5.78932 3.5611 6.46495 4.05925 6.96309C4.55739 7.46124 5.23302 7.74109 5.9375 7.74109C6.64198 7.74109 7.31761 7.46124 7.81575 6.96309C8.3139 6.46495 8.59375 5.78932 8.59375 5.08484C8.59375 4.38036 8.3139 3.70473 7.81575 3.20659C7.31761 2.70844 6.64198 2.42859 5.9375 2.42859ZM3.4375 9.92859C3.39606 9.92859 3.35632 9.94505 3.32701 9.97435C3.29771 10.0037 3.28125 10.0434 3.28125 10.0848V26.3348C3.28125 26.4211 3.35125 26.4911 3.4375 26.4911H8.4375C8.47894 26.4911 8.51868 26.4746 8.54799 26.4453C8.57729 26.416 8.59375 26.3763 8.59375 26.3348V10.0848C8.59375 10.0434 8.57729 10.0037 8.54799 9.97435C8.51868 9.94505 8.47894 9.92859 8.4375 9.92859H3.4375ZM11.5625 9.92859C11.5211 9.92859 11.4813 9.94505 11.452 9.97435C11.4227 10.0037 11.4062 10.0434 11.4062 10.0848V26.3348C11.4062 26.4211 11.4762 26.4911 11.5625 26.4911H16.5625C16.6039 26.4911 16.6437 26.4746 16.673 26.4453C16.7023 26.416 16.7188 26.3763 16.7188 26.3348V17.5848C16.7188 16.9632 16.9657 16.3671 17.4052 15.9276C17.8448 15.488 18.4409 15.2411 19.0625 15.2411C19.6841 15.2411 20.2802 15.488 20.7198 15.9276C21.1593 16.3671 21.4062 16.9632 21.4062 17.5848V26.3348C21.4062 26.4211 21.4762 26.4911 21.5625 26.4911H26.5625C26.6039 26.4911 26.6437 26.4746 26.673 26.4453C26.7023 26.416 26.7188 26.3763 26.7188 26.3348V15.5598C26.7188 12.5261 24.0813 10.1536 21.0625 10.4273C20.1285 10.5124 19.2136 10.7435 18.3512 11.1123L16.7188 11.8123V10.0848C16.7188 10.0434 16.7023 10.0037 16.673 9.97435C16.6437 9.94505 16.6039 9.92859 16.5625 9.92859H11.5625Z" fill="white"/>
</svg>
