<svg width="30" height="31" viewBox="0 0 30 31" fill="none" xmlns="http://www.w3.org/2000/svg">
<g clip-path="url(#clip0_26_97)">
<path d="M15 0.0848389C10.9294 0.0848389 10.4175 0.103589 8.81812 0.174839C7.21875 0.249839 6.12937 0.501089 5.175 0.872339C4.17393 1.24887 3.26717 1.83951 2.51813 2.60296C1.75514 3.35239 1.16458 4.25904 0.7875 5.25984C0.41625 6.21234 0.163125 7.30359 0.09 8.89734C0.01875 10.5005 0 11.0105 0 15.0867C0 19.1592 0.01875 19.6692 0.09 21.2686C0.165 22.8661 0.41625 23.9555 0.7875 24.9098C1.17188 25.8961 1.68375 26.7323 2.51813 27.5667C3.35063 28.4011 4.18687 28.9148 5.17313 29.2973C6.12937 29.6686 7.21688 29.9217 8.81437 29.9948C10.4156 30.0661 10.9256 30.0848 15 30.0848C19.0744 30.0848 19.5825 30.0661 21.1838 29.9948C22.7794 29.9198 23.8725 29.6686 24.8269 29.2973C25.8273 28.9206 26.7334 28.33 27.4819 27.5667C28.3162 26.7323 28.8281 25.8961 29.2125 24.9098C29.5819 23.9555 29.835 22.8661 29.91 21.2686C29.9812 19.6692 30 19.1592 30 15.0848C30 11.0105 29.9812 10.5005 29.91 8.89921C29.835 7.30359 29.5819 6.21234 29.2125 5.25984C28.8355 4.25901 28.2449 3.35236 27.4819 2.60296C26.7331 1.83923 25.8262 1.24855 24.825 0.872339C23.8687 0.501089 22.7775 0.247964 21.1819 0.174839C19.5806 0.103589 19.0725 0.0848389 14.9963 0.0848389H15.0019H15ZM13.6556 2.78859H15.0019C19.0069 2.78859 19.4812 2.80171 21.0619 2.87484C22.5244 2.94046 23.3194 3.18609 23.8481 3.39046C24.5475 3.66234 25.0481 3.98859 25.5731 4.51359C26.0981 5.03859 26.4225 5.53734 26.6944 6.23859C26.9006 6.76546 27.1444 7.56046 27.21 9.02296C27.2831 10.6036 27.2981 11.078 27.2981 15.0811C27.2981 19.0842 27.2831 19.5605 27.21 21.1411C27.1444 22.6036 26.8988 23.3967 26.6944 23.9255C26.4539 24.5768 26.07 25.1657 25.5712 25.6486C25.0462 26.1736 24.5475 26.498 23.8463 26.7698C23.3213 26.9761 22.5262 27.2198 21.0619 27.2873C19.4812 27.3586 19.0069 27.3755 15.0019 27.3755C10.9969 27.3755 10.5206 27.3586 8.94 27.2873C7.4775 27.2198 6.68437 26.9761 6.15562 26.7698C5.50406 26.5297 4.91461 26.1465 4.43062 25.6486C3.93141 25.1649 3.54698 24.5754 3.30562 23.9236C3.10125 23.3967 2.85563 22.6017 2.79 21.1392C2.71875 19.5586 2.70375 19.0842 2.70375 15.0773C2.70375 11.0723 2.71875 10.5998 2.79 9.01921C2.8575 7.55671 3.10125 6.76171 3.3075 6.23296C3.57938 5.53359 3.90562 5.03296 4.43062 4.50796C4.95563 3.98296 5.45437 3.65859 6.15562 3.38671C6.68437 3.18046 7.4775 2.93671 8.94 2.86921C10.3238 2.80546 10.86 2.78671 13.6556 2.78484V2.78859ZM23.0081 5.27859C22.7717 5.27859 22.5377 5.32515 22.3193 5.41561C22.1009 5.50606 21.9025 5.63865 21.7353 5.8058C21.5682 5.97294 21.4356 6.17137 21.3451 6.38976C21.2547 6.60814 21.2081 6.84221 21.2081 7.07859C21.2081 7.31497 21.2547 7.54903 21.3451 7.76742C21.4356 7.9858 21.5682 8.18424 21.7353 8.35138C21.9025 8.51853 22.1009 8.65111 22.3193 8.74157C22.5377 8.83203 22.7717 8.87859 23.0081 8.87859C23.4855 8.87859 23.9434 8.68895 24.2809 8.35138C24.6185 8.01382 24.8081 7.55598 24.8081 7.07859C24.8081 6.6012 24.6185 6.14336 24.2809 5.8058C23.9434 5.46823 23.4855 5.27859 23.0081 5.27859ZM15.0019 7.38234C13.9801 7.3664 12.9654 7.55387 12.0168 7.93385C11.0682 8.31383 10.2047 8.87872 9.47653 9.59563C8.74835 10.3125 8.17006 11.1672 7.77533 12.1097C7.3806 13.0523 7.17731 14.0639 7.17731 15.0858C7.17731 16.1076 7.3806 17.1193 7.77533 18.0619C8.17006 19.0044 8.74835 19.859 9.47653 20.5759C10.2047 21.2928 11.0682 21.8577 12.0168 22.2377C12.9654 22.6177 13.9801 22.8052 15.0019 22.7892C17.0241 22.7577 18.9529 21.9322 20.3718 20.4909C21.7908 19.0497 22.5861 17.1083 22.5861 15.0858C22.5861 13.0633 21.7908 11.1219 20.3718 9.68062C18.9529 8.23938 17.0241 7.41389 15.0019 7.38234ZM15.0019 10.0842C16.3281 10.0842 17.6001 10.6111 18.5379 11.5489C19.4757 12.4867 20.0025 13.7586 20.0025 15.0848C20.0025 16.4111 19.4757 17.683 18.5379 18.6208C17.6001 19.5586 16.3281 20.0855 15.0019 20.0855C13.6756 20.0855 12.4037 19.5586 11.4659 18.6208C10.5281 17.683 10.0013 16.4111 10.0013 15.0848C10.0013 13.7586 10.5281 12.4867 11.4659 11.5489C12.4037 10.6111 13.6756 10.0842 15.0019 10.0842Z" fill="white"/>
</g>
<defs>
<clipPath id="clip0_26_97">
<rect width="30" height="30" fill="white" transform="translate(0 0.0848389)"/>
</clipPath>
</defs>
</svg>
